<svg width="799.9999999999999" height="600" xmlns="http://www.w3.org/2000/svg">
 <g id="Layer_1">
  <title>Layer 1</title>
  <path id="svg_6" d="m320.1926,301.44229c0,0.96153 -25.96144,-11.53842 -43.26907,-4.80767c-17.30763,6.73074 -34.61526,8.65381 -41.346,24.99991c-6.73074,16.34609 -20.19223,29.80758 -14.42302,49.03828c5.76921,19.2307 21.15377,42.30754 39.42293,45.19214c18.26916,2.8846 47.11521,5.76921 61.53824,-5.76921c14.42302,-11.53842 23.07684,-14.42302 36.53833,-8.65381c13.46149,5.76921 24.03837,13.46149 28.84605,24.99991c4.80767,11.53842 18.26916,14.42302 26.92298,5.76921c8.65381,-8.65381 6.73074,-16.34609 3.84614,-30.76912c-2.8846,-14.42302 -13.46149,-22.1153 -12.49995,-32.69219c0.96153,-10.57688 -5.76921,-22.1153 -5.76921,-36.53833c0,-14.42302 -10.57688,-21.15377 -8.65381,-42.30754c1.92307,-21.15377 -10.57688,-39.42293 -6.73074,-57.6921c3.84614,-18.26916 -10.57688,-39.42293 -5.76921,-56.73056c4.80767,-17.30763 -12.49995,-16.34609 -8.65381,-39.42293c3.84614,-23.07684 -1.92307,-40.38447 8.65381,-55.76903c10.57688,-15.38456 31.73065,-30.76912 8.65381,-42.30754c-23.07684,-11.53842 -48.07675,-17.30763 -58.65363,-6.73074c-10.57688,10.57688 -51.92289,9.61535 -53.84596,32.69219c-1.92307,23.07684 -41.346,24.99991 -30.76912,44.23061c10.57688,19.2307 10.57688,36.53833 25.96144,40.38447c15.38456,3.84614 28.84605,0.96153 27.88451,18.26916c-0.96153,17.30763 18.26916,17.30763 16.34609,36.53833c-1.92307,19.2307 21.15377,25.96144 19.2307,40.38447c-1.92307,14.42302 5.76921,26.92298 0,38.4614c-5.76921,11.53842 -13.46149,18.26916 -13.46149,19.2307z" stroke="#000" fill="#fff"/>
  <path id="svg_7" d="m268.29189,345.73198c-20.93879,-4.43927 -14.63423,15.85375 -14.63423,21.95135c0,6.0976 -3.65856,19.51231 17.07327,18.29279c20.73183,-1.21952 37.8051,4.87808 37.8051,-10.97567c0,-15.85375 9.75616,-21.95135 2.43904,-30.48798c-7.31712,-8.53664 -25.54458,22.8577 -42.68318,1.21952z" stroke="#000" fill="#fff"/>
 </g>
</svg>