<svg height="600" width="800" xmlns="http://www.w3.org/2000/svg"><g fill="#fff" stroke="#000"><path d="m320.1926 301.44229c0 .96153-25.96144-11.53842-43.26907-4.80767-17.30763 6.73074-34.61526 8.65381-41.346 24.99991-6.73074 16.34609-20.19223 29.80758-14.42302 49.03828s21.15377 42.30754 39.42293 45.19214 47.11521 5.76921 61.53824-5.76921c14.42302-11.53842 23.07684-14.42302 36.53833-8.65381s24.03837 13.46149 28.84605 24.99991c4.80767 11.53842 18.26916 14.42302 26.92298 5.76921 8.65381-8.65381 6.73074-16.34609 3.84614-30.76912-2.8846-14.42302-13.46149-22.1153-12.49995-32.69219.96153-10.57688-5.76921-22.1153-5.76921-36.53833 0-14.42302-10.57688-21.15377-8.65381-42.30754s-10.57688-39.42293-6.73074-57.6921c3.84614-18.26916-10.57688-39.42293-5.76921-56.73056s-12.49995-16.34609-8.65381-39.42293-1.92307-40.38447 8.65381-55.76903 31.73065-30.76912 8.65381-42.30754-48.07675-17.30763-58.65363-6.73074c-10.57688 10.57688-51.92289 9.61535-53.84596 32.69219s-41.346 24.99991-30.76912 44.23061 10.57688 36.53833 25.96144 40.38447 28.84605.96153 27.88451 18.26916c-.96153 17.30763 18.26916 17.30763 16.34609 36.53833s21.15377 25.96144 19.2307 40.38447c-1.92307 14.42302 5.76921 26.92298 0 38.4614s-13.46149 18.26916-13.46149 19.2307z"/><path d="m268.29189 345.73198c-20.93879-4.43927-14.63423 15.85375-14.63423 21.95135s-3.65856 19.51231 17.07327 18.29279 37.8051 4.87808 37.8051-10.97567 9.75616-21.95135 2.43904-30.48798c-7.31712-8.53664-25.54458 22.8577-42.68318 1.21952z"/></g></svg>