<svg xmlns="http://www.w3.org/2000/svg" width="1485" height="556" viewBox="0 0 1485 556">
  <defs>
    <style>
      .cls-1 {
        fill-rule: evenodd;
      }
    </style>
  </defs>
  <path id="Color_Fill_1" data-name="Color Fill 1" class="cls-1" d="M706,55c22.042-.6,57.86.008,63,15,7.015,9.122-3.288,20.91-7,26-10.892,14.936-24.719,24.328-42,33-5.785,2.9-15.379,6.961-24,4-16.379-5.626-42.419-41.34-26-65,4.678-6.741,18.979-9.82,28-12C701.084,55.255,704.03,56.187,706,55ZM344,96c9.37-.151,18.135.47,25,2,1.283,2.072,2.077,2.3,3,5,3.631,5.927-3.36,17.733-6,22-10.867,17.564-24.833,33.677-33,54-5.77,14.357-1.142,32.5,2,47,5.21,24.036-14.433,51.634-26,60-24.332,17.6-62.577,20.135-92,33-30.924,13.522-50.774,39.063-76,58-10.7,8.031-43.713,27.605-45,42,13.519,12.458,18.693,6.6,39,11,8.449,1.831,21.3-1.1,31,1,17.687,3.82,42.4,1,62,1,9.7,0,21.951-.744,30,1,14.93,3.235,44.063-2.066,52-7,17.863-11.105,26.414-50.569,46-56,16.915-4.69,38.28,19.59,47,26,12.787,9.4,27.257,18.958,44,24,9.915,2.986,21.389-.625,33,2,4.976,1.125,10.29,2.883,15,4,1.121,2.091,1.434,1.832,2,5,3.052,5.781-8.362,12.868-12,16-16.731,14.4-37.407,25.576-59,35-37.545,16.385-92.257,17-147,17-19.442,0-44.522,3.068-62-1H193c-13.41-1.214-30.75-.918-44-4H119c-9.052-2.078-22.74,1.39-33-1-23.846-5.555-44.88-9.178-56-27-21.929-35.148,15.408-72.842,35-87,12.789-9.242,26.7-19.248,42-26,13.011-5.741,25.5-9.753,37-17,14.069-8.866,24.137-22.288,37-32,11.879-8.969,24.226-18.142,37-26,16.637-10.235,63.309-25.31,66-46-2.79-2.824-4.626-6.784-8-9-10.105-6.638-22.444-9.041-32-16-10.238-7.455-6.287-21.368-13-27-6.812-5.351-31.318,5.905-38,9-13.578,6.29-29.08,10.845-45,15-11.2,2.924-22.44.981-33,4-13.5,3.859-24.519,12.091-40,13-8.847-8.563-27.9-30.162-20-51,5.83-15.375,20.91-26.4,34-35,12.6-8.279,26.169-17,43-21,23.256-5.527,50.853,10.093,74,5,11.366-2.5,24.3-.3,36-3,20.973-4.833,43.52-7.549,63-13Zm181,5c25.128-.389,46,1.484,64,7,27.418,8.4,53.445,18,67,40,8.867,14.394,14.4,53.418,9,78-3.045,13.848-1.681,29.043-5,44-5.8,26.143-9.183,88.7-2,116,4.766,18.113,11.861,36.286,26,45,10.667,6.574,28.442,4.447,33,17,10.671,13.773-8.359,37.2-15,42-23.91,17.269-60.934,1.636-74-16-25.538-34.47-2.083-82.828-2-126,0.041-21.462-1.157-59.125-20-60-9.429,10.036-17.243,22.242-27,32-21.663,21.666-49.867,42.361-80,55-34.22,14.354-63.076,9.87-76-21-14.972-35.763,8.568-72.565,28-87,13.458-10,29.755-17.361,43-27,14.117-10.274,28.878-27.081,23-51-32.47-16.774-75.8,13.445-98,25-9.314,4.847-17.438,10.664-32,8-4.911-7.542-8.517-14.108-11-25-3.652-16.021,3.441-30.4,8-39,19.571-36.9,64.406-38.263,107-51Zm1,176c-5.116,3.1-13.207,1.853-19,4-16.228,6.015-38.538,19.488-41,39a19.54,19.54,0,0,1,2,4c27.937,16.912,74.1-9.087,85-26,2.441-3.787,3.06-7.732,3-14C547.907,278.734,540.471,276.908,526,277Z"/>
  <path class="cls-1" d="M761.42,199.464c24.344-32.363,34.447-59.273,58.931-69.649,43.847-18.581,76.512,14.351,126.281,0,20.326-5.861,34.527-15.9,56.128-11.872,11.47,2.139,20.21,6.812,25.25,13.455,7.82,10.306,6.23,23.794,0,32.45-9.79,13.623-33.448,18.459-65.476,16.621-25.8-1.48-37.811-10.412-63.608-11.872-19.783-1.119-57.859,1.4-86.058,26.119-29.771,26.094-29.538,60.445-26.192,78.355,4.684,25.07,23.713,62,58.931,70.44,44.569,10.686,88.46-33.505,146.86-34.824,14.543-.329,31.133,1.394,47.7,9.5,10.48,5.127,30.86,17.565,32.74,34.825,1.28,11.665-9.94,30.439-43.03,50.654-33.8,20.656-85.171,37.485-167.436,32.45-49.853-3.051-83.852-16.152-100.089-28.493-9.968-7.576-22.868-21.4-32.739-40.365-24.179-46.461-14.895-95.581,2.806-129.009C740.232,223.5,750.813,213.565,761.42,199.464Z"/>
  <path class="cls-1" d="M993.438,455.961c-4.663-8.878-34.511-4.058-57.407,5.333-13.12,5.381-19.875,10.8-32.636,10.867-2.44.012-16.1-3.508-24.784-.061-11.044,4.383-13.4,14.88-22.224,20.471-13.33,8.448-28.763,3.729-40.44,1.269-29.725-6.261-65.283-3.886-67.841,5.308-2.058,7.395,17,20.039,29.937,26.072,7.082,3.3,22.145,7.1,37.807,8.3,16.98,1.307,31.567-1.276,35.228-4.019,10.8-8.087,11.971-26.052,23.553-30.046,6.264-2.16,11.524.926,16.951,2.778,17.349,5.922,53.4-11.333,57.423-12.175,14.257-2.986,26.509-3.889,36.559-14.962C989.608,470.643,996.223,461.263,993.438,455.961Z"/>
  <path class="cls-1" d="M1028.69,56.573c-3.17,5.2-8.21,17-1,28.26,2.22,3.474,9.56,10.135,22,14.534,10.19,3.6,18.61,2.475,28.01,7.266,12.06,6.149,16.48,16.486,19,22.608,10.55,25.56,24.03,58.267,26.01,69.439,1.51,8.55,10.26,43.635,15,62.979,6.7,27.309,12.42,47.522,13,74.283,0.98,44.925-15.56,78.1-26,86.394-10.62,8.437-42.05,16.71-49.01,33.912-4.35,10.753-1.89,25.941,10,32.3,12.23,6.538,29.62.717,37.01-2.423,18.2-7.738,26.35-21.323,31-28.259,17.97-26.757,39-45.56,62.02-48.446,19.78-2.48,49.39,9.528,85.02,44.408,18.83,18.441,25.53,33.776,46,41.179,35.8,12.942,93.62.46,117.03-33.912,27.01-39.656-6.29-80.928-21.01-95.276-18.2-17.745-47.69-37.679-87.01-41.986-55.82-6.113-104.51,32.28-129.03,18.571-24.31-13.594-16.49-69.85,14-115.462,53.9-80.629,189.54-98.744,189.04-140.491C1429.25,43.33,1292.04-1.2,1265.74,22.661c-10.28,9.323,1.44,33.612,0,53.29-1.24,16.882-9.87,53.063-39.01,60.557-18.86,4.849-43.15-6.354-72.02-31.49-16.31-14.21-31.44-33.02-51.01-50.06-11.49-10.008-24.49-19.474-41-18.571A43.84,43.84,0,0,0,1028.69,56.573Z"/>
</svg>
