<?xml version="1.0" encoding="UTF-8" standalone="no"?>
<svg
   xmlns:dc="http://purl.org/dc/elements/1.1/"
   xmlns:cc="http://creativecommons.org/ns#"
   xmlns:rdf="http://www.w3.org/1999/02/22-rdf-syntax-ns#"
   xmlns:svg="http://www.w3.org/2000/svg"
   xmlns="http://www.w3.org/2000/svg"
   xmlns:sodipodi="http://sodipodi.sourceforge.net/DTD/sodipodi-0.dtd"
   xmlns:inkscape="http://www.inkscape.org/namespaces/inkscape"
   width="210mm"
   height="297mm"
   viewBox="0 0 210 297"
   version="1.1"
   id="svg8"
   inkscape:version="1.0.2 (e86c8708, 2021-01-15)"
   sodipodi:docname="brokatlogo.svg">
  <defs
     id="defs2">
    <rect
       x="23.803152"
       y="94.079123"
       width="141.69371"
       height="106.75465"
       id="rect12" />
  </defs>
  <sodipodi:namedview
     id="base"
     pagecolor="#ffffff"
     bordercolor="#666666"
     borderopacity="1.0"
     inkscape:pageopacity="0.0"
     inkscape:pageshadow="2"
     inkscape:zoom="1.1428988"
     inkscape:cx="140.84122"
     inkscape:cy="-19.895163"
     inkscape:document-units="mm"
     inkscape:current-layer="layer1"
     inkscape:document-rotation="0"
     showgrid="false"
     inkscape:window-width="1252"
     inkscape:window-height="806"
     inkscape:window-x="0"
     inkscape:window-y="25"
     inkscape:window-maximized="0" />
  <metadata
     id="metadata5">
    <rdf:RDF>
      <cc:Work
         rdf:about="">
        <dc:format>image/svg+xml</dc:format>
        <dc:type
           rdf:resource="http://purl.org/dc/dcmitype/StillImage" />
        <dc:title />
      </cc:Work>
    </rdf:RDF>
  </metadata>
  <g
     inkscape:label="Layer 1"
     inkscape:groupmode="layer"
     id="layer1">
    <g
       aria-label="ZCKD"
       id="text10"
       style="font-size:50.8px;line-height:1.25;font-family:'BROKAT v1.0';-inkscape-font-specification:'BROKAT v1.0';white-space:pre;shape-inside:url(#rect12)"
       transform="matrix(1.7133561,0,0,1.7133561,-127.79244,-225.88773)">
      <path
         d="m 47.564398,135.58368 c 0.508,0 0,0 1.816599,0.0206 0.0122,1.80819 0.0122,1.30019 0.0122,1.80819 v 3.6576 c -12.2936,0 -18.525067,-0.0169 -18.6944,-0.0508 -1.185333,-0.13547 -2.608003,0.20374 -3.420803,-0.67679 -0.778933,-0.88053 -0.744797,-2.76068 -0.744797,-3.94601 0,-1.18533 0.4064,-2.2352 1.2192,-3.1496 0.8128,-0.9144 1.778,-1.38853 2.8956,-1.4224 h 15.5448 c 0.474133,0 0.880533,-0.16933 1.2192,-0.508 0.372533,-0.37253 0.5588,-0.79587 0.5588,-1.27 0,-0.47413 -0.186267,-0.88053 -0.5588,-1.2192 -0.338667,-0.37253 -0.745067,-0.5588 -1.2192,-0.5588 h -16.9164 -1.782422 c -0.04638,-1.8288 -0.04638,-1.3208 -0.04638,-1.8288 v -3.6576 h 18.034 c 1.3208,0 3.267138,-0.1566 4.215405,0.7578 0.948267,0.88053 0.610595,2.595 0.610595,3.9158 0,1.18533 -0.4064,2.2352 -1.2192,3.1496 -0.8128,0.9144 -1.778,1.38853 -2.8956,1.4224 h -15.5448 c -0.474133,0 -0.897467,0.18627 -1.27,0.5588 -0.338667,0.33867 -0.508,0.74507 -0.508,1.2192 0,0.47413 0.169333,0.89747 0.508,1.27 0.372533,0.33867 0.795867,0.508 1.27,0.508 z m 1.9304,5.4864 h -0.1016 z"
         style="font-size:50.8px;line-height:1.25;font-family:'BROKAT v1.0';-inkscape-font-specification:'BROKAT v1.0';white-space:pre;shape-inside:url(#rect12)"
         id="path16"
         sodipodi:nodetypes="scscccsscssscsscscscsscssscssccc" />
      <path
         d="m 60.458903,141.07008 q -2.4384,0 -4.5212,-1.2192 -2.0828,-1.2192 -3.3528,-3.302 -1.2192,-2.1336 -1.2192,-4.6736 0,-2.4384 1.2192,-4.5212 1.2192,-2.0828 3.302,-3.302 2.0828,-1.27 4.572,-1.27 h 11.1252 q 0.7112,0 1.2192,0.508 0.508,0.508 0.508,1.2192 v 3.7592 h -18.3896 q -0.9652,0.0508 -1.778,0.5588 -0.762,0.508 -1.1684,1.3208 -0.4064,0.8128 -0.4064,1.6764 0,1.4732 0.9144,2.5908 0.9652,1.1176 2.4384,1.1684 h 18.3896 v 3.7592 q 0,0.7112 -0.508,1.2192 -0.508,0.508 -1.2192,0.508 h -11.0744 z m -5.4356,-7.3152 q 0,-0.762 -0.5588,-1.27 -0.508,-0.5588 -1.27,-0.5588 0.762,0 1.27,-0.508 0.5588,-0.5588 0.5588,-1.3208 0,0.762 0.508,1.3208 0.5588,0.508 1.3208,0.508 -0.762,0 -1.3208,0.5588 -0.508,0.508 -0.508,1.27 z"
         style="font-size:50.8px;line-height:1.25;font-family:'BROKAT v1.0';-inkscape-font-specification:'BROKAT v1.0';white-space:pre;shape-inside:url(#rect12)"
         id="path18" />
      <path
         d="m 77.599934,141.07008 q -0.7112,0 -1.2192,-0.508 -0.508,-0.508 -0.508,-1.2192 v -3.7592 h 2.6924 q 0.3556,0 0.6096,-0.254 0.254,-0.254 0.254,-0.6096 v -0.9652 q 0,-0.7112 -0.508,-1.2192 -0.508,-0.508 -1.2192,-0.508 h -1.8288 v -0.2032 h 1.8288 q 0.7112,0 1.2192,-0.508 0.508,-0.508 0.508,-1.2192 v -0.9652 q 0,-0.3556 -0.254,-0.6096 -0.254,-0.254 -0.6096,-0.254 h -2.6924 v -3.7592 q 0,-0.7112 0.508,-1.2192 0.508,-0.508 1.2192,-0.508 h 5.587999 v 5.4864 h -2.692399 q -0.3556,0 -0.6096,0.254 -0.254,0.254 -0.254,0.6096 v 0.9652 q 0,0.7112 0.508,1.2192 0.508,0.508 1.2192,0.508 h 1.777999 l 3.7084,-3.7084 v -5.334 h 10.9728 v 5.4864 h -10.8204 l -3.6576,3.6576 3.6576,3.6576 h 10.8204 v 5.4864 h -9.144 q -0.762,0 -1.3208,-0.508 -0.508,-0.5588 -0.508,-1.3208 v -3.5052 l -3.7084,-3.7084 h -1.777999 q -0.7112,0 -1.2192,0.508 -0.508,0.508 -0.508,1.2192 v 0.9652 q 0,0.3556 0.254,0.6096 0.254,0.254 0.6096,0.254 h 2.692399 v 5.4864 z"
         style="font-size:50.8px;line-height:1.25;font-family:'BROKAT v1.0';-inkscape-font-specification:'BROKAT v1.0';white-space:pre;shape-inside:url(#rect12)"
         id="path20" />
      <path
         d="m 100.37976,137.31088 q 0,-0.7112 0.508,-1.2192 0.508,-0.508 1.2192,-0.508 h 0.9652 q 0.3556,0 0.6096,-0.254 0.254,-0.254 0.254,-0.6096 v -1.0668 q 0,-0.5588 -0.3556,-1.016 -0.3048,-0.4572 -0.8128,-0.6096 -0.3048,-0.1016 -0.5588,-0.1016 0.254,0 0.5588,-0.1016 0.508,-0.1524 0.8128,-0.6096 0.3556,-0.4572 0.3556,-1.016 v -1.0668 q 0,-0.3556 -0.254,-0.6096 -0.254,-0.254 -0.6096,-0.254 h -2.6924 v -3.7592 q 0,-0.7112 0.508,-1.2192 0.508,-0.508 1.2192,-0.508 h 11.0744 q 2.9972,0 5.3848,1.778 1.7272,1.2192 2.7432,3.2004 1.016,1.9812 1.016,4.1148 0,1.9304 -0.6604,3.5052 -0.6604,1.524 -1.9812,2.9972 -1.3208,1.27 -2.9972,1.9812 -1.6764,0.7112 -3.4544,0.7112 h -0.0508 -12.8016 z m 18.3896,-1.7272 q 1.524,-0.0508 2.4384,-0.9652 0.9144,-0.9144 0.9144,-2.5908 -0.0508,-1.4224 -1.0668,-2.54 -0.9652,-1.1684 -2.286,-1.2192 h -13.7668 q -0.3556,0 -0.6096,0.254 -0.254,0.254 -0.254,0.6096 v 1.0668 q 0,0.5588 0.3048,1.016 0.3556,0.4572 0.8636,0.6096 0.3048,0.1016 0.5588,0.1016 -0.254,0 -0.5588,0.1016 -0.508,0.1524 -0.8636,0.6096 -0.3048,0.4572 -0.3048,1.016 v 1.0668 q 0,0.3556 0.254,0.6096 0.254,0.254 0.6096,0.254 z"
         style="font-size:50.8px;line-height:1.25;font-family:'BROKAT v1.0';-inkscape-font-specification:'BROKAT v1.0';white-space:pre;shape-inside:url(#rect12)"
         id="path22" />
    </g>
  </g>
</svg>
